<svg version="1.0" xmlns="http://www.w3.org/2000/svg" width="682.667" height="682.667" viewBox="0 0 512 512"><path d="M81 1.9C61.9 7 46.6 22.9 40 44.3c-4.7 15.1-5.7 37.3-2.5 55.7.2 1.4.7 4.5 1 7 .3 2.5.8 5.2 1 6 .3.8 1.4 6.2 2.5 12 1 5.8 2.2 11.6 2.5 13 .5 2.3 2.6 14.9 4 23 .3 1.9.7 10.7 1 19.5l.5 16-2.9 6c-5.6 11.3-22.6 26.1-41 35.4L2 240v31.9l7.2 4c17.3 9.5 31.6 21.8 37.3 32.2 2.9 5.3 3 5.7 3 18.9-.1 17.5-1 26.3-4.5 44-9 45.1-10.6 59.7-8.5 77.9 3.4 30.8 21.8 55.1 46.5 61.5 4.2 1.1 14 1.4 42.3 1.5l36.7.1v-63.7l-9.2-.1c-25.7-.3-42.9-8.7-46.9-22.9-1.8-6.4-1.5-21.9.5-32.1 1-4.5 1.9-9.5 2.2-11 .3-1.5 1.3-7.7 2.4-13.7 1-6.1 2.1-12.6 2.4-14.5.2-1.9.7-5.5 1.1-8 3.3-24.5 3.6-33.5 1.2-42.8-2.2-8.1-5.5-15.1-11.1-23.2-4.8-6.8-20.2-23-21.9-23-.6 0 3.7-4.6 9.5-10.3 18.4-17.8 25.6-32.3 25-50.6-.1-5.5-.7-9.4-6.3-42.6-1.7-9.9-3.3-19.4-3.5-21-.3-1.7-.7-4-.9-5.1-.7-3-1.5-13.5-1.9-23-.6-16.9 4.9-26.6 18.9-33.4 8.8-4.2 20.8-6.7 33.3-6.9l5.2-.1V0l-37.2.1C92.7.2 86.6.4 81 1.9zM350 32v32l4.8.1c28 .3 48.4 11.2 51.9 27.9 1.1 5.5.8 20.4-.7 27.4-.6 2.9-1.3 6.6-1.6 8.2-.4 2.5-1.2 6.8-3 16.4-.8 4-2.3 13.2-2.8 17-.2 1.9-.8 5.7-1.1 8.5-.4 2.7-.8 6.1-1.1 7.4-.5 3.7-1.7 18.2-1.7 21.6 0 17.4 8.3 32.8 26.9 50.1l8.2 7.6-4.2 3.7c-2.2 2-4.9 4.5-5.9 5.6-1 1.1-3.5 3.8-5.6 6-15.3 16.5-21.3 34.7-18.8 57 .4 3.3 1 8 1.2 10.5.3 2.5.7 5.4 1 6.5.2 1.1.7 4.7 1 8 .4 3.3 1 7.6 1.5 9.5.5 1.9 1.2 5.5 1.5 8 .4 2.5 1.1 6.4 1.6 8.8.5 2.3 1.2 5.9 1.5 8 .3 2 .7 4.4.9 5.2 1.1 3.9 1.8 12.3 1.8 20.2 0 9.7-1.9 16.5-6.2 21.2-4.9 5.4-14.6 10.5-23.1 12.1-4.9 1-14 1.8-20.2 1.8l-7.8-.1V512h36.2c20.9-.1 38.3-.5 41.2-1.1 8.8-1.8 19.2-7.6 26.5-14.8 20.2-19.9 26.8-51.7 19.2-93.1-2-10.8-4-21.5-4.6-24-.4-2.2-2.4-12.4-4-21.5-1.2-6.7-2-18.7-2-31 0-12.1.2-13.3 2.6-18 5.5-10.3 20.3-23.1 37.9-32.8l6.5-3.6.3-15.9.2-16-7.2-4c-20-11.1-34.8-24.7-39.1-36.2-1.4-3.7-1.6-7-1.3-19 .5-15 .8-17.7 3.2-32 2.1-12.5 2.4-14.3 3-16.2.3-1 .7-3 1-4.5.3-1.6 1.1-6.4 1.9-10.8.8-4.4 1.8-9.8 2.1-12 .3-2.2.8-4.3 1-4.6.7-1.2 1.8-18.7 1.7-27.1-.1-7.2-.9-14.4-2.7-24-.9-4.5-4-12.8-7.3-19.1-7.6-14.6-23.5-26.9-38.3-29.6-3-.5-21.8-1-41.7-1.1H350v32z"/><path d="M237 138.7c-21 3.6-41.2 12.9-57 26.2-21.7 18.2-35.4 42.1-41.5 72.6-1.2 5.5-1.4 29.9-.4 35.5 5 28.1 15.9 49.4 34.8 68 17 16.9 36.6 27.6 59.4 32.6 9.6 2.1 32 2.6 42.3.9 21.9-3.5 42.5-12.9 58.9-26.8 6.1-5.2 7.2-6.2 13.9-13.8 10.4-11.8 19.6-29 24.1-45 3.3-11.9 4-17.6 4-33.4-.1-12.6-1.2-22.3-3.5-29.5-.4-1.4-1.3-4.5-2.1-7-.7-2.5-3-8.3-5.2-13-16.6-35.6-48.6-59.9-88.7-67.5-7.5-1.4-30.5-1.3-39 .2zm-8.4 10.5c-.3 1.8-.5 4.3-.5 5.4-.1 2-6.9 7.6-27.5 22.5l-4.9 3.6-8.1-3.5c-4.5-1.9-8.2-3.5-8.3-3.7-.5-.3 12.1-10 17.2-13.2 7.5-4.8 25-12.5 32.2-14.2.2-.1.1 1.4-.1 3.1zm65.6.2c13.1 4.8 27 12.7 36.1 20.7l3.9 3.4-8.3 3.6-8.3 3.5-9-6.4c-10.2-7.3-20.5-15.1-22.2-16.7-.6-.6-1.3-3.2-1.6-5.8-.7-5.7-.2-5.8 9.4-2.3zm-52.4 17.8c7 4.5 13 8.6 13.3 9.1.3.4.6 9.5.6 20.1l.1 19.4-4.2 2.3c-2.2 1.2-5.2 3-6.6 4-1.4.9-7 4.3-12.5 7.6l-10.1 5.9-5.4-2.9c-16.8-8.7-26.5-13.9-26.7-14.1-.1-.1.2-2.9.7-6.2.6-3.2 1.2-8.2 1.5-10.9.3-2.8.8-5.8 1.1-6.8.3-1.1.8-2.9.9-4 .2-1.2.6-3.1.9-4.2.2-1.1.5-2.5.5-3.1.1-.6 3.1-3.2 6.9-5.7 3.7-2.5 10.8-7.7 15.7-11.6 5-3.8 9.4-7 9.8-7 .4-.1 6.5 3.6 13.5 8.1zm55.4.8c6.8 4.9 12.8 9.4 13.3 9.8.6.5 2.2 1.6 3.7 2.6 2.6 1.7 3.9 5.3 5.3 14.6.3 1.9 1 6 1.5 9s1.2 7.6 1.5 10.1l.5 4.7-10.7 5.5c-6 3-13.2 6.8-16.2 8.4l-5.3 3-16.7-10.1-16.6-10.1-.1-19.3c0-16.3.2-19.4 1.5-20.6 1.6-1.5 25.1-16.6 25.7-16.6.2 0 5.9 4 12.6 9zm-92.4 60.4c6.7 3.6 12.6 6.6 13.1 6.6 2.7 0 3.2 3.5 3.2 20.7 0 9.8-.1 18.3-.1 19 0 1.6-29.1 17.3-32.2 17.3-.5 0-2.2-.8-3.6-1.9-1.5-1-9-5.3-16.7-9.6-7.7-4.3-14.3-8.2-14.6-8.8-.7-1.1-.6-30.4.1-31 .3-.2 4.3-2.5 9-5.1 4.7-2.6 9.2-5.1 10-5.6.8-.6 2.4-1.4 3.5-2 1.1-.5 4-2.3 6.5-3.9 3-2 5.4-2.9 7-2.6 1.4.2 8 3.3 14.8 6.9zm127.4-3.1c9.9 5.9 16.4 9.6 21.8 12.4 2.7 1.4 4.7 3.2 5.1 4.6.8 3 .8 28.2 0 29.5-.5.8-13.5 8.3-30.5 17.6l-5.3 2.9-15.4-8-15.4-8.1v-39.6l15-7.8c8.3-4.2 15.5-7.8 16.2-7.8.6 0 4.4 1.9 8.5 4.3zm-180.5 15c.7.5 1 1.4.7 1.9-.4.6-.6 7.6-.6 15.8 0 14.7 0 14.8-2.4 15.9-3.7 1.6-5 1.4-5.2-1.2-.8-6.8-.7-27.8 0-31.4.9-4.1 1-4.2 3.6-3.1 1.5.7 3.3 1.6 3.9 2.1zm217.6 1.9c.8 7.1.1 30.8-.9 31.8-.7.7-2 .7-4.1 0l-3-1.1v-16.4c0-15.6.1-16.4 2.1-17.3 4.2-2.1 5.4-1.5 5.9 3zM299.5 282c3.3 1.8 9.9 5.2 14.8 7.7 4.8 2.4 8.7 4.8 8.7 5.4 0 .7-1.1 8.2-3.5 22.9-.5 3.3-1.7 9.6-2.1 11-.2.9-2.9 3.3-6 5.5-3 2.2-10.2 7.5-16 11.8-12 9-8.9 9.3-26.6-2.3l-11.4-7.4v-39.2l17-10.2c10.3-6.1 17.4-9.8 18-9.3.6.5 3.8 2.3 7.1 4.1zm-60 5.6l16.2 9.6v19.7l.1 19.7-7.5 4.9c-4.1 2.8-8.2 5.4-9.1 6-.9.5-3.6 2.2-5.9 3.7-2.3 1.6-4.4 2.8-4.7 2.8-.6 0-21.2-15.2-23.7-17.5-.9-.8-2-1.5-2.5-1.5-1.8-.1-6.3-4.9-6.8-7.2-.6-3.1-2.4-12.6-3.1-16.3-.2-1.7-.7-5-1-7.5-.3-2.5-.8-5.7-1.1-7.1-.4-2.3.2-2.9 6.8-6.3 4-2 10.9-5.7 15.3-8.1 4.4-2.4 8.6-4.4 9.4-4.4.7-.1 8.7 4.2 17.6 9.5zm-38 48.9c25.6 19 26.5 19.7 26.6 22.4 0 1.4.2 3.6.5 4.8.5 2.9-.5 2.9-9.4-.1-11.8-4-29.3-14.3-37.6-21.9l-2.6-2.4 6.8-2.8c3.7-1.6 7.1-3.2 7.7-3.7 1.3-1.2 1.5-1.1 8 3.7zm125.4-.4l7.3 3.3-2.8 2.4c-13.9 11.4-26.4 18.5-41.4 23.1l-6 1.9.4-2.2c.3-1.1.5-3.5.5-5.1.1-2.5 1.1-3.8 5.4-7 2.8-2.2 5.7-4.4 6.4-5 .6-.5 4.6-3.5 8.8-6.5 4.3-3 8.7-6.3 9.9-7.2 1.1-1 2.6-1.6 3.1-1.4.6.2 4.3 1.9 8.4 3.7z"/></svg>