<?xml version="1.0" standalone="no"?>
<!DOCTYPE svg PUBLIC "-//W3C//DTD SVG 20010904//EN"
 "http://www.w3.org/TR/2001/REC-SVG-20010904/DTD/svg10.dtd">
<svg version="1.0" xmlns="http://www.w3.org/2000/svg"
 width="512.000000pt" height="512.000000pt" viewBox="0 0 512.000000 512.000000"
 preserveAspectRatio="xMidYMid meet">
<metadata>
Created by potrace 1.11, written by Peter Selinger 2001-2013
</metadata>
<g transform="translate(0.000000,512.000000) scale(0.100000,-0.100000)"
fill="#000000" stroke="none">
<path d="M810 5101 c-191 -51 -344 -210 -410 -424 -47 -151 -57 -373 -25 -557
2 -14 7 -45 10 -70 3 -25 8 -52 10 -60 3 -8 14 -62 25 -120 10 -58 22 -116 25
-130 5 -23 26 -149 40 -230 3 -19 7 -107 10 -195 l5 -160 -29 -60 c-56 -113
-226 -261 -410 -354 l-41 -21 0 -160 0 -159 72 -40 c173 -95 316 -218 373
-322 29 -53 30 -57 30 -189 -1 -175 -10 -263 -45 -440 -90 -451 -106 -597 -85
-779 34 -308 218 -551 465 -615 42 -11 140 -14 423 -15 l367 -1 0 318 0 319
-92 1 c-257 3 -429 87 -469 229 -18 64 -15 219 5 321 10 45 19 95 22 110 3 15
13 77 24 137 10 61 21 126 24 145 2 19 7 55 11 80 33 245 36 335 12 428 -22
81 -55 151 -111 232 -48 68 -202 230 -219 230 -6 0 37 46 95 103 184 178 256
323 250 506 -1 55 -7 94 -63 426 -17 99 -33 194 -35 210 -3 17 -7 40 -9 51 -7
30 -15 135 -19 230 -6 169 49 266 189 334 88 42 208 67 333 69 l52 1 0 320 0
320 -372 -1 c-321 -1 -382 -3 -438 -18z"/>
<path d="M3500 4800 l0 -320 48 -1 c280 -3 484 -112 519 -279 11 -55 8 -204
-7 -274 -6 -29 -13 -66 -16 -82 -4 -25 -12 -68 -30 -164 -8 -40 -23 -132 -28
-170 -2 -19 -8 -57 -11 -85 -4 -27 -8 -61 -11 -74 -5 -37 -17 -182 -17 -216 0
-174 83 -328 269 -501 l82 -76 -42 -37 c-22 -20 -49 -45 -59 -56 -10 -11 -35
-38 -56 -60 -153 -165 -213 -347 -188 -570 4 -33 10 -80 12 -105 3 -25 7 -54
10 -65 2 -11 7 -47 10 -80 4 -33 10 -76 15 -95 5 -19 12 -55 15 -80 4 -25 11
-64 16 -88 5 -23 12 -59 15 -80 3 -20 7 -44 9 -52 11 -39 18 -123 18 -202 0
-97 -19 -165 -62 -212 -49 -54 -146 -105 -231 -121 -49 -10 -140 -18 -202 -18
l-78 1 0 -319 0 -319 362 0 c209 1 383 5 412 11 88 18 192 76 265 148 202 199
268 517 192 931 -20 108 -40 215 -46 240 -4 22 -24 124 -40 215 -12 67 -20
187 -20 310 0 121 2 133 26 180 55 103 203 231 379 328 l65 36 3 159 2 160
-72 40 c-200 111 -348 247 -391 362 -14 37 -16 70 -13 190 5 150 8 177 32 320
21 125 24 143 30 162 3 10 7 30 10 45 3 16 11 64 19 108 8 44 18 98 21 120 3
22 8 43 10 46 7 12 18 187 17 271 -1 72 -9 144 -27 240 -9 45 -40 128 -73 191
-76 146 -235 269 -383 296 -30 5 -218 10 -417 11 l-363 0 0 -320z"/>
<path d="M2370 3733 c-210 -36 -412 -129 -570 -262 -217 -182 -354 -421 -415
-726 -12 -55 -14 -299 -4 -355 50 -281 159 -494 348 -680 170 -169 366 -276
594 -326 96 -21 320 -26 423 -9 219 35 425 129 589 268 61 52 72 62 139 138
104 118 196 290 241 450 33 119 40 176 40 334 -1 126 -12 223 -35 295 -4 14
-13 45 -21 70 -7 25 -30 83 -52 130 -166 356 -486 599 -887 675 -75 14 -305
13 -390 -2z m-84 -105 c-3 -18 -5 -43 -5 -54 -1 -20 -69 -76 -275 -225 l-49
-36 -81 35 c-45 19 -82 35 -83 37 -5 3 121 100 172 132 75 48 250 125 322 142
2 1 1 -14 -1 -31z m656 -2 c131 -48 270 -127 361 -207 l39 -34 -83 -36 -83
-35 -90 64 c-102 73 -205 151 -222 167 -6 6 -13 32 -16 58 -7 57 -2 58 94 23z
m-524 -178 c70 -45 130 -86 133 -91 3 -4 6 -95 6 -201 l1 -194 -42 -23 c-22
-12 -52 -30 -66 -40 -14 -9 -70 -43 -125 -76 l-101 -59 -54 29 c-168 87 -265
139 -267 141 -1 1 2 29 7 62 6 32 12 82 15 109 3 28 8 58 11 68 3 11 8 29 9
40 2 12 6 31 9 42 2 11 5 25 5 31 1 6 31 32 69 57 37 25 108 77 157 116 50 38
94 70 98 70 4 1 65 -36 135 -81z m554 -8 c68 -49 128 -94 133 -98 6 -5 22 -16
37 -26 26 -17 39 -53 53 -146 3 -19 10 -60 15 -90 5 -30 12 -76 15 -101 l5
-47 -107 -55 c-60 -30 -132 -68 -162 -84 l-53 -30 -167 101 -166 101 -1 193
c0 163 2 194 15 206 16 15 251 166 257 166 2 0 59 -40 126 -90z m-924 -604
c67 -36 126 -66 131 -66 27 0 32 -35 32 -207 0 -98 -1 -183 -1 -190 0 -16
-291 -173 -322 -173 -5 0 -22 8 -36 19 -15 10 -90 53 -167 96 -77 43 -143 82
-146 88 -7 11 -6 304 1 310 3 2 43 25 90 51 47 26 92 51 100 56 8 6 24 14 35
20 11 5 40 23 65 39 30 20 54 29 70 26 14 -2 80 -33 148 -69z m1274 31 c99
-59 164 -96 218 -124 27 -14 47 -32 51 -46 8 -30 8 -282 0 -295 -5 -8 -135
-83 -305 -176 l-53 -29 -154 80 -154 81 0 198 0 198 150 78 c83 42 155 78 162
78 6 0 44 -19 85 -43z m-1805 -150 c7 -5 10 -14 7 -19 -4 -6 -6 -76 -6 -158 0
-147 0 -148 -24 -159 -37 -16 -50 -14 -52 12 -8 68 -7 278 0 314 9 41 10 42
36 31 15 -7 33 -16 39 -21z m2176 -19 c8 -71 1 -308 -9 -318 -7 -7 -20 -7 -41
0 l-30 11 0 164 c0 156 1 164 21 173 42 21 54 15 59 -30z m-698 -398 c33 -18
99 -52 148 -77 48 -24 87 -48 87 -54 0 -7 -11 -82 -35 -229 -5 -33 -17 -96
-21 -110 -2 -9 -29 -33 -60 -55 -30 -22 -102 -75 -160 -118 -120 -90 -89 -93
-266 23 l-114 74 0 196 0 196 170 102 c103 61 174 98 180 93 6 -5 38 -23 71
-41z m-600 -56 l162 -96 0 -197 1 -197 -75 -49 c-41 -28 -82 -54 -91 -60 -9
-5 -36 -22 -59 -37 -23 -16 -44 -28 -47 -28 -6 0 -212 152 -237 175 -9 8 -20
15 -25 15 -18 1 -63 49 -68 72 -6 31 -24 126 -31 163 -2 17 -7 50 -10 75 -3
25 -8 57 -11 71 -4 23 2 29 68 63 40 20 109 57 153 81 44 24 86 44 94 44 7 1
87 -42 176 -95z m-380 -489 c256 -190 265 -197 266 -224 0 -14 2 -36 5 -48 5
-29 -5 -29 -94 1 -118 40 -293 143 -376 219 l-26 24 68 28 c37 16 71 32 77 37
13 12 15 11 80 -37z m1254 4 l73 -33 -28 -24 c-139 -114 -264 -185 -414 -231
l-60 -19 4 22 c3 11 5 35 5 51 1 25 11 38 54 70 28 22 57 44 64 50 6 5 46 35
88 65 43 30 87 63 99 72 11 10 26 16 31 14 6 -2 43 -19 84 -37z"/>
</g>
</svg>
